{
	"asset": {
		"generator": "Tilt Brush 23.3.841faedfb compatible (Actually: Open Brush 2.10.0.)",
		"version": "2.0",
		"copyright": "Unknown."
	},
	"buffers": [
		{
			"byteLength": 8596368,
			"uri": "sketch.bin"
		}
	],
	"accessors": [
		{
			"bufferView": 3,
			"byteOffset": 0,
			"componentType": 5126,
			"count": 63864,
			"max": [ 0.0198963918, 0.399769038, 0.163973719 ],
			"min": [ -0.0977307484, -0.0140183633, -0.226033807 ],
			"type": "VEC3"
		},
		{
			"bufferView": 3,
			"byteOffset": 766368,
			"componentType": 5126,
			"count": 63864,
			"type": "VEC3"
		},
		{
			"bufferView": 1,
			"byteOffset": 0,
			"componentType": 5121,
			"normalized": true,
			"count": 63864,
			"type": "VEC4"
		},
		{
			"bufferView": 4,
			"byteOffset": 0,
			"componentType": 5126,
			"count": 63864,
			"type": "VEC4"
		},
		{
			"bufferView": 2,
			"byteOffset": 0,
			"componentType": 5126,
			"count": 63864,
			"type": "VEC2"
		},
		{
			"bufferView": 3,
			"byteOffset": 1532736,
			"componentType": 5126,
			"count": 63864,
			"type": "VEC3"
		},
		{
			"bufferView": 0,
			"byteOffset": 0,
			"componentType": 5123,
			"count": 63864,
			"max": [ 63863 ],
			"min": [ 0 ],
			"type": "SCALAR"
		},
		{
			"bufferView": 3,
			"byteOffset": 2299104,
			"componentType": 5126,
			"count": 64644,
			"max": [ 0.0194030982, 0.412149727, 0.166295439 ],
			"min": [ -0.0980949029, -0.00446255226, -0.22230792 ],
			"type": "VEC3"
		},
		{
			"bufferView": 3,
			"byteOffset": 3074832,
			"componentType": 5126,
			"count": 64644,
			"type": "VEC3"
		},
		{
			"bufferView": 1,
			"byteOffset": 255456,
			"componentType": 5121,
			"normalized": true,
			"count": 64644,
			"type": "VEC4"
		},
		{
			"bufferView": 4,
			"byteOffset": 1021824,
			"componentType": 5126,
			"count": 64644,
			"type": "VEC4"
		},
		{
			"bufferView": 2,
			"byteOffset": 510912,
			"componentType": 5126,
			"count": 64644,
			"type": "VEC2"
		},
		{
			"bufferView": 3,
			"byteOffset": 3850560,
			"componentType": 5126,
			"count": 64644,
			"type": "VEC3"
		},
		{
			"bufferView": 0,
			"byteOffset": 127728,
			"componentType": 5123,
			"count": 64644,
			"max": [ 64643 ],
			"min": [ 0 ],
			"type": "SCALAR"
		},
		{
			"bufferView": 3,
			"byteOffset": 4626288,
			"componentType": 5126,
			"count": 1740,
			"max": [ 0.0131127303, 0.404279053, 0.16699712 ],
			"min": [ 0.000824563205, 0.0137550971, -0.220534787 ],
			"type": "VEC3"
		},
		{
			"bufferView": 3,
			"byteOffset": 4647168,
			"componentType": 5126,
			"count": 1740,
			"type": "VEC3"
		},
		{
			"bufferView": 1,
			"byteOffset": 514032,
			"componentType": 5121,
			"normalized": true,
			"count": 1740,
			"type": "VEC4"
		},
		{
			"bufferView": 4,
			"byteOffset": 2056128,
			"componentType": 5126,
			"count": 1740,
			"type": "VEC4"
		},
		{
			"bufferView": 2,
			"byteOffset": 1028064,
			"componentType": 5126,
			"count": 1740,
			"type": "VEC2"
		},
		{
			"bufferView": 3,
			"byteOffset": 4668048,
			"componentType": 5126,
			"count": 1740,
			"type": "VEC3"
		},
		{
			"bufferView": 0,
			"byteOffset": 257016,
			"componentType": 5123,
			"count": 1740,
			"max": [ 1739 ],
			"min": [ 0 ],
			"type": "SCALAR"
		}
	],
	"bufferViews": [
		{
			"buffer": 0,
			"byteLength": 260496,
			"byteOffset": 0,
			"target": 34963
		},
		{
			"buffer": 0,
			"byteLength": 520992,
			"byteOffset": 260496,
			"byteStride": 4,
			"target": 34962
		},
		{
			"buffer": 0,
			"byteLength": 1041984,
			"byteOffset": 781488,
			"byteStride": 8,
			"target": 34962
		},
		{
			"buffer": 0,
			"byteLength": 4688928,
			"byteOffset": 1823472,
			"byteStride": 12,
			"target": 34962
		},
		{
			"buffer": 0,
			"byteLength": 2083968,
			"byteOffset": 6512400,
			"byteStride": 16,
			"target": 34962
		}
	],
	"meshes": [
		{
			"name": "brush_Marbled Rainbow_g0_b0",
			"primitives": [
				{
					"attributes": {
						"POSITION": 0,
						"NORMAL": 1,
						"COLOR_0": 2,
						"TANGENT": 3,
						"_TB_TIMESTAMP": 5,
						"_TB_UNITY_TEXCOORD_0": 4,
						"TEXCOORD_0": 4
					},
					"indices": 6,
					"material": 0,
					"mode": 4
				}
			]
		},
		{
			"name": "brush_Marbled Rainbow_g0_b1",
			"primitives": [
				{
					"attributes": {
						"POSITION": 7,
						"NORMAL": 8,
						"COLOR_0": 9,
						"TANGENT": 10,
						"_TB_TIMESTAMP": 12,
						"_TB_UNITY_TEXCOORD_0": 11,
						"TEXCOORD_0": 11
					},
					"indices": 13,
					"material": 0,
					"mode": 4
				}
			]
		},
		{
			"name": "brush_Marbled Rainbow_g0_b2",
			"primitives": [
				{
					"attributes": {
						"POSITION": 14,
						"NORMAL": 15,
						"COLOR_0": 16,
						"TANGENT": 17,
						"_TB_TIMESTAMP": 19,
						"_TB_UNITY_TEXCOORD_0": 18,
						"TEXCOORD_0": 18
					},
					"indices": 20,
					"material": 0,
					"mode": 4
				}
			]
		}
	],
	"samplers": [
		{
			"magFilter": 9729,
			"minFilter": 9987,
			"wrapS": 10497,
			"wrapT": 10497
		}
	],
	"textures": [
		{
			"sampler": 0,
			"source": 0
		},
		{
			"sampler": 0,
			"source": 1
		}
	],
	"images": [
		{
			"uri": "Brush_Marbledx20Rainbow-c86c058d-1bda-2e94-08db-f3d6a96ac4a1-v10.0-MainTex.png"
		},
		{
			"uri": "Brush_Marbledx20Rainbow-c86c058d-1bda-2e94-08db-f3d6a96ac4a1-v10.0-BumpMap.png"
		}
	],
	"materials": [
		{
			"alphaMode": "MASK",
			"alphaCutoff": 0.5,
			"pbrMetallicRoughness": {
				"baseColorTexture": {
					"index": 0,
					"texCoord": 0
				},
				"metallicFactor": 0,
				"roughnessFactor": 0.199999988
			},
			"normalTexture": {
				"index": 1,
				"texCoord": 0
			},
			"name": "brush_Marbled Rainbow",
			"extensions": {
				"GOOGLE_tilt_brush_material": {
					"guid": "c86c058d-1bda-2e94-08db-f3d6a96ac4a1"
				}
			}
		}
	],
	"nodes": [
		{
			"name": "brush_Marbled Rainbow_g0_b0",
			"mesh": 0
		},
		{
			"name": "node_SceneLight_0_i1",
			"matrix": [0.898794, -0.2191856, -0.3796406, 0, 0.4383712, 0.449397, 0.7783785, 0, -1.490116E-08, -0.8660254, 0.4999999, 0, 0, 0.021875, -0.05458749, 1]
		},
		{
			"name": "node_SceneLight_1_i2",
			"matrix": [0.7660444, 0.4924039, -0.4131759, 0, 0.6427876, -0.5868242, 0.4924039, 0, 8.940697E-08, -0.6427876, -0.7660446, 0, 0, 0.021875, -0.05458749, 1]
		},
		{
			"name": "brush_Marbled Rainbow_g0_b1",
			"mesh": 1
		},
		{
			"name": "brush_Marbled Rainbow_g0_b2",
			"mesh": 2
		}
	],
	"scene": 0,
	"scenes": [
		{
			"nodes": [
				0,
				1,
				2,
				3,
				4
			],
			"extras": {

			}
		}
	],
	"extensionsUsed": [
		"GOOGLE_tilt_brush_material"
	]
}